<mxfile modified="2019-11-17T15:21:09.933Z" host="www.draw.io" agent="Mozilla/5.0 (Macintosh; Intel Mac OS X 10_14_6) AppleWebKit/537.36 (KHTML, like Gecko) Chrome/78.0.3904.97 Safari/537.36" etag="UFNkokEIqIjPEM09kaXs" version="12.2.6" type="github" pages="1">
  <diagram id="QO_2AIzxencwlxpaJsb1" name="第 1 页">
    <mxGraphModel dx="1332" dy="2140" grid="0" gridSize="10" guides="1" tooltips="1" connect="1" arrows="1" fold="1" page="0" pageScale="1" pageWidth="827" pageHeight="1169" math="0" shadow="0">
      <root>
        <mxCell id="0"/>
        <mxCell id="1" parent="0"/>
        <mxCell id="dCdwvmBEWZGB2ASoRf-r-2" value="" style="rounded=0;whiteSpace=wrap;html=1;" parent="1" vertex="1">
          <mxGeometry x="150" y="80" width="460" height="10" as="geometry"/>
        </mxCell>
        <mxCell id="dCdwvmBEWZGB2ASoRf-r-3" value="writeBuffer" style="text;html=1;resizable=0;points=[];autosize=1;align=left;verticalAlign=top;spacingTop=-4;" parent="1" vertex="1">
          <mxGeometry x="70" y="75" width="70" height="20" as="geometry"/>
        </mxCell>
        <mxCell id="dCdwvmBEWZGB2ASoRf-r-4" value="" style="rounded=0;whiteSpace=wrap;html=1;" parent="1" vertex="1">
          <mxGeometry x="150" y="125" width="460" height="10" as="geometry"/>
        </mxCell>
        <mxCell id="dCdwvmBEWZGB2ASoRf-r-5" value="writeBuffer.slice" style="text;html=1;resizable=0;points=[];autosize=1;align=left;verticalAlign=top;spacingTop=-4;" parent="1" vertex="1">
          <mxGeometry x="40" y="120" width="100" height="20" as="geometry"/>
        </mxCell>
        <mxCell id="dCdwvmBEWZGB2ASoRf-r-6" value="" style="endArrow=classic;html=1;" parent="1" edge="1">
          <mxGeometry width="50" height="50" relative="1" as="geometry">
            <mxPoint x="230" y="45" as="sourcePoint"/>
            <mxPoint x="230" y="125" as="targetPoint"/>
          </mxGeometry>
        </mxCell>
        <mxCell id="dCdwvmBEWZGB2ASoRf-r-7" value="commitedPos" style="text;html=1;resizable=0;points=[];autosize=1;align=left;verticalAlign=top;spacingTop=-4;" parent="1" vertex="1">
          <mxGeometry x="190" y="25" width="90" height="20" as="geometry"/>
        </mxCell>
        <mxCell id="dCdwvmBEWZGB2ASoRf-r-9" value="" style="endArrow=classic;html=1;" parent="1" edge="1">
          <mxGeometry width="50" height="50" relative="1" as="geometry">
            <mxPoint x="390" y="43" as="sourcePoint"/>
            <mxPoint x="390" y="123" as="targetPoint"/>
          </mxGeometry>
        </mxCell>
        <mxCell id="dCdwvmBEWZGB2ASoRf-r-10" value="wrotePos" style="text;html=1;resizable=0;points=[];autosize=1;align=left;verticalAlign=top;spacingTop=-4;" parent="1" vertex="1">
          <mxGeometry x="350" y="21" width="70" height="20" as="geometry"/>
        </mxCell>
        <mxCell id="dCdwvmBEWZGB2ASoRf-r-12" value="postition" style="text;html=1;resizable=0;points=[];autosize=1;align=left;verticalAlign=top;spacingTop=-4;" parent="1" vertex="1">
          <mxGeometry x="207.5" y="146" width="55" height="14" as="geometry"/>
        </mxCell>
        <mxCell id="dCdwvmBEWZGB2ASoRf-r-13" value="limit" style="text;html=1;resizable=0;points=[];autosize=1;align=left;verticalAlign=top;spacingTop=-4;" parent="1" vertex="1">
          <mxGeometry x="385" y="146" width="31" height="14" as="geometry"/>
        </mxCell>
        <mxCell id="dCdwvmBEWZGB2ASoRf-r-14" value="满足&lt;span style=&quot;font-size: 14px ; color: rgb(38 , 38 , 38) ; line-height: 24px ; letter-spacing: 0.05em ; outline-style: none ; overflow-wrap: break-word&quot;&gt;broker.isMaster &amp;amp;&amp;amp; ASYNC_FLUSH &amp;amp;&amp;amp;&amp;nbsp;transientStorePoolEnable条件时候才会写自己创建的writeuffer&lt;br&gt;否则writeBuffer就是mappedByteBuffer本身&lt;br&gt;&lt;/span&gt;" style="text;html=1;resizable=0;points=[];autosize=1;align=left;verticalAlign=top;spacingTop=-4;" parent="1" vertex="1">
          <mxGeometry x="51" y="183" width="725" height="48" as="geometry"/>
        </mxCell>
        <mxCell id="dCdwvmBEWZGB2ASoRf-r-15" value="SYNC_FLUSH模式下单独开辟writeBuffer的异步消息写入场景" style="text;html=1;resizable=0;points=[];autosize=1;align=left;verticalAlign=top;spacingTop=-4;" parent="1" vertex="1">
          <mxGeometry x="168" y="-11" width="339" height="14" as="geometry"/>
        </mxCell>
        <mxCell id="dCdwvmBEWZGB2ASoRf-r-16" value="" style="rounded=0;whiteSpace=wrap;html=1;" parent="1" vertex="1">
          <mxGeometry x="218" y="366" width="8" height="275" as="geometry"/>
        </mxCell>
        <mxCell id="dCdwvmBEWZGB2ASoRf-r-17" value="GroupTransferService" style="text;html=1;resizable=0;points=[];autosize=1;align=left;verticalAlign=top;spacingTop=-4;" parent="1" vertex="1">
          <mxGeometry x="162" y="339" width="128" height="14" as="geometry"/>
        </mxCell>
        <mxCell id="dCdwvmBEWZGB2ASoRf-r-18" value="" style="rounded=0;whiteSpace=wrap;html=1;" parent="1" vertex="1">
          <mxGeometry x="78" y="366" width="8" height="275" as="geometry"/>
        </mxCell>
        <mxCell id="dCdwvmBEWZGB2ASoRf-r-19" value="ReadSocketService" style="text;html=1;resizable=0;points=[];autosize=1;align=left;verticalAlign=top;spacingTop=-4;" parent="1" vertex="1">
          <mxGeometry x="22" y="339" width="115" height="14" as="geometry"/>
        </mxCell>
        <mxCell id="dCdwvmBEWZGB2ASoRf-r-20" value="" style="endArrow=classic;html=1;" parent="1" edge="1">
          <mxGeometry width="50" height="50" relative="1" as="geometry">
            <mxPoint x="86" y="403" as="sourcePoint"/>
            <mxPoint x="217" y="403" as="targetPoint"/>
          </mxGeometry>
        </mxCell>
        <mxCell id="dCdwvmBEWZGB2ASoRf-r-21" value="weakup" style="text;html=1;resizable=0;points=[];autosize=1;align=left;verticalAlign=top;spacingTop=-4;" parent="1" vertex="1">
          <mxGeometry x="121" y="385" width="51" height="14" as="geometry"/>
        </mxCell>
        <mxCell id="dCdwvmBEWZGB2ASoRf-r-22" value="当收到新的offset，&lt;br&gt;并cas设置成功后" style="text;html=1;resizable=0;points=[];autosize=1;align=left;verticalAlign=top;spacingTop=-4;" parent="1" vertex="1">
          <mxGeometry x="105" y="408" width="111" height="28" as="geometry"/>
        </mxCell>
        <mxCell id="dCdwvmBEWZGB2ASoRf-r-23" value="" style="rounded=0;whiteSpace=wrap;html=1;" parent="1" vertex="1">
          <mxGeometry x="361" y="364" width="8" height="275" as="geometry"/>
        </mxCell>
        <mxCell id="dCdwvmBEWZGB2ASoRf-r-24" value="GroupTransferService" style="text;html=1;resizable=0;points=[];autosize=1;align=left;verticalAlign=top;spacingTop=-4;" parent="1" vertex="1">
          <mxGeometry x="305" y="337" width="128" height="14" as="geometry"/>
        </mxCell>
        <mxCell id="dCdwvmBEWZGB2ASoRf-r-25" value="" style="endArrow=classic;html=1;entryX=1.125;entryY=0.153;entryDx=0;entryDy=0;entryPerimeter=0;" parent="1" target="dCdwvmBEWZGB2ASoRf-r-16" edge="1">
          <mxGeometry width="50" height="50" relative="1" as="geometry">
            <mxPoint x="361" y="407.5" as="sourcePoint"/>
            <mxPoint x="492" y="407.5" as="targetPoint"/>
          </mxGeometry>
        </mxCell>
        <mxCell id="dCdwvmBEWZGB2ASoRf-r-26" value="初次放入request时候" style="text;html=1;resizable=0;points=[];autosize=1;align=left;verticalAlign=top;spacingTop=-4;" parent="1" vertex="1">
          <mxGeometry x="239" y="408" width="130" height="20" as="geometry"/>
        </mxCell>
        <mxCell id="dCdwvmBEWZGB2ASoRf-r-27" value="weakupAll" style="text;html=1;resizable=0;points=[];autosize=1;align=left;verticalAlign=top;spacingTop=-4;" parent="1" vertex="1">
          <mxGeometry x="265" y="389" width="70" height="20" as="geometry"/>
        </mxCell>
        <mxCell id="dCdwvmBEWZGB2ASoRf-r-28" value="等待对象为WaitNotifyObject" style="text;html=1;resizable=0;points=[];autosize=1;align=left;verticalAlign=top;spacingTop=-4;" parent="1" vertex="1">
          <mxGeometry x="205" y="652" width="160" height="20" as="geometry"/>
        </mxCell>
        <mxCell id="dCdwvmBEWZGB2ASoRf-r-29" style="edgeStyle=orthogonalEdgeStyle;rounded=0;orthogonalLoop=1;jettySize=auto;html=1;exitX=1;exitY=0.25;exitDx=0;exitDy=0;" parent="1" source="dCdwvmBEWZGB2ASoRf-r-23" edge="1">
          <mxGeometry relative="1" as="geometry">
            <mxPoint x="369" y="560" as="targetPoint"/>
            <Array as="points">
              <mxPoint x="450" y="433"/>
              <mxPoint x="450" y="560"/>
              <mxPoint x="369" y="560"/>
            </Array>
          </mxGeometry>
        </mxCell>
        <mxCell id="dCdwvmBEWZGB2ASoRf-r-30" value="waitForFlush【latch.await】" style="text;html=1;resizable=0;points=[];autosize=1;align=left;verticalAlign=top;spacingTop=-4;" parent="1" vertex="1">
          <mxGeometry x="380" y="412" width="160" height="20" as="geometry"/>
        </mxCell>
        <mxCell id="dCdwvmBEWZGB2ASoRf-r-31" value="" style="endArrow=classic;html=1;" parent="1" edge="1">
          <mxGeometry width="50" height="50" relative="1" as="geometry">
            <mxPoint x="226" y="563" as="sourcePoint"/>
            <mxPoint x="357" y="563" as="targetPoint"/>
          </mxGeometry>
        </mxCell>
        <mxCell id="dCdwvmBEWZGB2ASoRf-r-32" value="weakupConsumer" style="text;html=1;resizable=0;points=[];autosize=1;align=left;verticalAlign=top;spacingTop=-4;" parent="1" vertex="1">
          <mxGeometry x="240.5" y="544" width="110" height="20" as="geometry"/>
        </mxCell>
        <mxCell id="dCdwvmBEWZGB2ASoRf-r-33" value="latch.countDown" style="text;html=1;resizable=0;points=[];autosize=1;align=left;verticalAlign=top;spacingTop=-4;" parent="1" vertex="1">
          <mxGeometry x="239" y="564" width="100" height="20" as="geometry"/>
        </mxCell>
        <mxCell id="dCdwvmBEWZGB2ASoRf-r-36" style="edgeStyle=orthogonalEdgeStyle;rounded=0;orthogonalLoop=1;jettySize=auto;html=1;exitX=1;exitY=0.25;exitDx=0;exitDy=0;entryX=1;entryY=0.5;entryDx=0;entryDy=0;" parent="1" source="dCdwvmBEWZGB2ASoRf-r-16" target="dCdwvmBEWZGB2ASoRf-r-16" edge="1">
          <mxGeometry relative="1" as="geometry">
            <Array as="points">
              <mxPoint x="226" y="450"/>
              <mxPoint x="300" y="450"/>
              <mxPoint x="300" y="504"/>
            </Array>
          </mxGeometry>
        </mxCell>
        <mxCell id="dCdwvmBEWZGB2ASoRf-r-37" value="遍历requets" style="text;html=1;resizable=0;points=[];autosize=1;align=left;verticalAlign=top;spacingTop=-4;" parent="1" vertex="1">
          <mxGeometry x="235" y="436" width="80" height="20" as="geometry"/>
        </mxCell>
        <mxCell id="dCdwvmBEWZGB2ASoRf-r-40" value="判断offset是否超过预期" style="text;html=1;resizable=0;points=[];autosize=1;align=left;verticalAlign=top;spacingTop=-4;" parent="1" vertex="1">
          <mxGeometry x="229" y="503.5" width="140" height="20" as="geometry"/>
        </mxCell>
        <mxCell id="dCdwvmBEWZGB2ASoRf-r-41" value="主从同步高可靠的消息发送" style="text;html=1;resizable=0;points=[];autosize=1;align=left;verticalAlign=top;spacingTop=-4;" parent="1" vertex="1">
          <mxGeometry x="150" y="309" width="160" height="20" as="geometry"/>
        </mxCell>
        <mxCell id="9mdDHmgzvhIgiJmxX1Zu-40" style="edgeStyle=orthogonalEdgeStyle;rounded=0;orthogonalLoop=1;jettySize=auto;html=1;" parent="1" source="9mdDHmgzvhIgiJmxX1Zu-1" edge="1">
          <mxGeometry relative="1" as="geometry">
            <mxPoint x="1867" y="69" as="targetPoint"/>
          </mxGeometry>
        </mxCell>
        <mxCell id="9mdDHmgzvhIgiJmxX1Zu-1" value="&lt;pre style=&quot;font-family: &amp;#34;menlo&amp;#34; ; font-size: 9pt&quot;&gt;&lt;span style=&quot;color: #660e7a ; font-weight: bold&quot;&gt;sendMessageExecutor&lt;/span&gt;&lt;/pre&gt;" style="ellipse;whiteSpace=wrap;html=1;" parent="1" vertex="1">
          <mxGeometry x="1374" y="43" width="194" height="52" as="geometry"/>
        </mxCell>
        <mxCell id="9mdDHmgzvhIgiJmxX1Zu-43" style="edgeStyle=orthogonalEdgeStyle;rounded=0;orthogonalLoop=1;jettySize=auto;html=1;exitX=1;exitY=0.5;exitDx=0;exitDy=0;" parent="1" source="9mdDHmgzvhIgiJmxX1Zu-2" target="9mdDHmgzvhIgiJmxX1Zu-20" edge="1">
          <mxGeometry relative="1" as="geometry"/>
        </mxCell>
        <mxCell id="9mdDHmgzvhIgiJmxX1Zu-2" value="&lt;pre style=&quot;font-family: &amp;#34;menlo&amp;#34; ; font-size: 9pt&quot;&gt;&lt;pre style=&quot;font-family: &amp;#34;menlo&amp;#34; ; font-size: 9pt&quot;&gt;&lt;span style=&quot;color: #660e7a ; font-weight: bold&quot;&gt;pullMessageExecutor&lt;/span&gt;&lt;/pre&gt;&lt;/pre&gt;" style="ellipse;whiteSpace=wrap;html=1;" parent="1" vertex="1">
          <mxGeometry x="1374" y="114" width="194" height="52" as="geometry"/>
        </mxCell>
        <mxCell id="9mdDHmgzvhIgiJmxX1Zu-46" style="edgeStyle=orthogonalEdgeStyle;rounded=0;orthogonalLoop=1;jettySize=auto;html=1;exitX=1;exitY=0.5;exitDx=0;exitDy=0;entryX=0;entryY=0.75;entryDx=0;entryDy=0;" parent="1" source="9mdDHmgzvhIgiJmxX1Zu-4" target="9mdDHmgzvhIgiJmxX1Zu-21" edge="1">
          <mxGeometry relative="1" as="geometry"/>
        </mxCell>
        <mxCell id="9mdDHmgzvhIgiJmxX1Zu-4" value="&lt;pre style=&quot;font-family: &amp;#34;menlo&amp;#34; ; font-size: 9pt&quot;&gt;&lt;pre style=&quot;font-family: &amp;#34;menlo&amp;#34; ; font-size: 9pt&quot;&gt;&lt;span style=&quot;color: #660e7a ; font-weight: bold&quot;&gt;queryMessageExecutor&lt;/span&gt;&lt;/pre&gt;&lt;/pre&gt;" style="ellipse;whiteSpace=wrap;html=1;" parent="1" vertex="1">
          <mxGeometry x="1374" y="186" width="194" height="52" as="geometry"/>
        </mxCell>
        <mxCell id="9mdDHmgzvhIgiJmxX1Zu-47" style="edgeStyle=orthogonalEdgeStyle;rounded=0;orthogonalLoop=1;jettySize=auto;html=1;exitX=1;exitY=0.5;exitDx=0;exitDy=0;entryX=0;entryY=0.75;entryDx=0;entryDy=0;" parent="1" source="9mdDHmgzvhIgiJmxX1Zu-5" target="9mdDHmgzvhIgiJmxX1Zu-38" edge="1">
          <mxGeometry relative="1" as="geometry">
            <mxPoint x="1865" y="282" as="targetPoint"/>
          </mxGeometry>
        </mxCell>
        <mxCell id="9mdDHmgzvhIgiJmxX1Zu-5" value="&lt;pre style=&quot;font-family: &amp;#34;menlo&amp;#34; ; font-size: 9pt&quot;&gt;&lt;pre style=&quot;font-family: &amp;#34;menlo&amp;#34; ; font-size: 9pt&quot;&gt;&lt;pre style=&quot;font-family: &amp;#34;menlo&amp;#34; ; font-size: 9pt&quot;&gt;&lt;span style=&quot;color: #660e7a ; font-weight: bold&quot;&gt;adminBrokerExecutor&lt;/span&gt;&lt;/pre&gt;&lt;/pre&gt;&lt;/pre&gt;" style="ellipse;whiteSpace=wrap;html=1;" parent="1" vertex="1">
          <mxGeometry x="1374" y="258" width="194" height="52" as="geometry"/>
        </mxCell>
        <mxCell id="9mdDHmgzvhIgiJmxX1Zu-48" style="edgeStyle=orthogonalEdgeStyle;rounded=0;orthogonalLoop=1;jettySize=auto;html=1;exitX=1;exitY=0.5;exitDx=0;exitDy=0;entryX=0;entryY=0.75;entryDx=0;entryDy=0;" parent="1" source="9mdDHmgzvhIgiJmxX1Zu-6" target="9mdDHmgzvhIgiJmxX1Zu-24" edge="1">
          <mxGeometry relative="1" as="geometry"/>
        </mxCell>
        <mxCell id="9mdDHmgzvhIgiJmxX1Zu-6" value="&lt;pre style=&quot;font-family: &amp;#34;menlo&amp;#34; ; font-size: 9pt&quot;&gt;&lt;pre style=&quot;font-family: &amp;#34;menlo&amp;#34; ; font-size: 9pt&quot;&gt;&lt;span style=&quot;color: #660e7a ; font-weight: bold&quot;&gt;clientManageExecutor&lt;/span&gt;&lt;/pre&gt;&lt;/pre&gt;" style="ellipse;whiteSpace=wrap;html=1;" parent="1" vertex="1">
          <mxGeometry x="1374" y="322" width="194" height="52" as="geometry"/>
        </mxCell>
        <mxCell id="9mdDHmgzvhIgiJmxX1Zu-49" style="edgeStyle=orthogonalEdgeStyle;rounded=0;orthogonalLoop=1;jettySize=auto;html=1;exitX=1;exitY=0.5;exitDx=0;exitDy=0;entryX=0;entryY=0.5;entryDx=0;entryDy=0;" parent="1" source="9mdDHmgzvhIgiJmxX1Zu-7" target="9mdDHmgzvhIgiJmxX1Zu-23" edge="1">
          <mxGeometry relative="1" as="geometry"/>
        </mxCell>
        <mxCell id="9mdDHmgzvhIgiJmxX1Zu-7" value="&lt;pre style=&quot;font-family: &amp;#34;menlo&amp;#34; ; font-size: 9pt&quot;&gt;&lt;pre style=&quot;font-family: &amp;#34;menlo&amp;#34; ; font-size: 9pt&quot;&gt;&lt;pre style=&quot;font-family: &amp;#34;menlo&amp;#34; ; font-size: 9pt&quot;&gt;&lt;span style=&quot;color: #660e7a ; font-weight: bold&quot;&gt;heartbeatExecutor&lt;/span&gt;&lt;/pre&gt;&lt;/pre&gt;&lt;/pre&gt;" style="ellipse;whiteSpace=wrap;html=1;" parent="1" vertex="1">
          <mxGeometry x="1374" y="393" width="194" height="52" as="geometry"/>
        </mxCell>
        <mxCell id="9mdDHmgzvhIgiJmxX1Zu-50" style="edgeStyle=orthogonalEdgeStyle;rounded=0;orthogonalLoop=1;jettySize=auto;html=1;exitX=1;exitY=0.5;exitDx=0;exitDy=0;entryX=0;entryY=0.75;entryDx=0;entryDy=0;" parent="1" source="9mdDHmgzvhIgiJmxX1Zu-8" target="9mdDHmgzvhIgiJmxX1Zu-26" edge="1">
          <mxGeometry relative="1" as="geometry"/>
        </mxCell>
        <mxCell id="9mdDHmgzvhIgiJmxX1Zu-8" value="&lt;pre style=&quot;font-family: &amp;#34;menlo&amp;#34; ; font-size: 9pt&quot;&gt;&lt;pre style=&quot;font-family: &amp;#34;menlo&amp;#34; ; font-size: 9pt&quot;&gt;&lt;pre style=&quot;font-family: &amp;#34;menlo&amp;#34; ; font-size: 9pt&quot;&gt;&lt;span style=&quot;color: #660e7a ; font-weight: bold&quot;&gt;consumerManageExecutor&lt;/span&gt;&lt;/pre&gt;&lt;/pre&gt;&lt;/pre&gt;" style="ellipse;whiteSpace=wrap;html=1;" parent="1" vertex="1">
          <mxGeometry x="1374" y="469" width="194" height="52" as="geometry"/>
        </mxCell>
        <mxCell id="9mdDHmgzvhIgiJmxX1Zu-51" style="edgeStyle=orthogonalEdgeStyle;rounded=0;orthogonalLoop=1;jettySize=auto;html=1;exitX=1;exitY=0.5;exitDx=0;exitDy=0;entryX=0;entryY=0.5;entryDx=0;entryDy=0;" parent="1" source="9mdDHmgzvhIgiJmxX1Zu-9" target="9mdDHmgzvhIgiJmxX1Zu-32" edge="1">
          <mxGeometry relative="1" as="geometry"/>
        </mxCell>
        <mxCell id="9mdDHmgzvhIgiJmxX1Zu-9" value="&lt;pre style=&quot;font-family: &amp;#34;menlo&amp;#34; ; font-size: 9pt&quot;&gt;&lt;pre style=&quot;font-family: &amp;#34;menlo&amp;#34; ; font-size: 9pt&quot;&gt;&lt;pre style=&quot;font-family: &amp;#34;menlo&amp;#34; ; font-size: 9pt&quot;&gt;&lt;pre style=&quot;font-family: &amp;#34;menlo&amp;#34; ; font-size: 9pt&quot;&gt;&lt;span style=&quot;color: #660e7a ; font-weight: bold&quot;&gt;endTransactionExecutor&lt;/span&gt;&lt;/pre&gt;&lt;/pre&gt;&lt;/pre&gt;&lt;/pre&gt;" style="ellipse;whiteSpace=wrap;html=1;" parent="1" vertex="1">
          <mxGeometry x="1374" y="548" width="194" height="52" as="geometry"/>
        </mxCell>
        <mxCell id="9mdDHmgzvhIgiJmxX1Zu-19" value="" style="rounded=0;whiteSpace=wrap;html=1;" parent="1" vertex="1">
          <mxGeometry x="1131" y="693" width="120" height="60" as="geometry"/>
        </mxCell>
        <mxCell id="9mdDHmgzvhIgiJmxX1Zu-20" value="&lt;pre style=&quot;font-family: &amp;#34;menlo&amp;#34; ; font-size: 9pt&quot;&gt;&lt;span style=&quot;color: #660e7a ; font-weight: bold ; font-style: italic&quot;&gt;PULL_MESSAGE&lt;/span&gt;&lt;/pre&gt;" style="rounded=0;whiteSpace=wrap;html=1;" parent="1" vertex="1">
          <mxGeometry x="1874.7853767136658" y="130" width="160" height="20" as="geometry"/>
        </mxCell>
        <mxCell id="9mdDHmgzvhIgiJmxX1Zu-23" value="&lt;pre style=&quot;font-family: &amp;#34;menlo&amp;#34; ; font-size: 9pt&quot;&gt;&lt;pre style=&quot;font-family: &amp;#34;menlo&amp;#34; ; font-size: 9pt&quot;&gt;&lt;span style=&quot;color: #660e7a ; font-weight: bold ; font-style: italic&quot;&gt;HEART_BEAT&lt;/span&gt;&lt;/pre&gt;&lt;/pre&gt;" style="rounded=0;whiteSpace=wrap;html=1;" parent="1" vertex="1">
          <mxGeometry x="1874.7853767136658" y="409" width="160" height="20" as="geometry"/>
        </mxCell>
        <mxCell id="9mdDHmgzvhIgiJmxX1Zu-24" value="&lt;pre style=&quot;font-family: &amp;#34;menlo&amp;#34; ; font-size: 9pt&quot;&gt;&lt;pre style=&quot;font-family: &amp;#34;menlo&amp;#34; ; font-size: 9pt&quot;&gt;&lt;pre style=&quot;font-family: &amp;#34;menlo&amp;#34; ; font-size: 9pt&quot;&gt;&lt;span style=&quot;color: #660e7a ; font-weight: bold ; font-style: italic&quot;&gt;UNREGISTER_CLIENT&lt;/span&gt;&lt;/pre&gt;&lt;/pre&gt;&lt;/pre&gt;" style="rounded=0;whiteSpace=wrap;html=1;" parent="1" vertex="1">
          <mxGeometry x="1874.7853767136658" y="333" width="160" height="20" as="geometry"/>
        </mxCell>
        <mxCell id="9mdDHmgzvhIgiJmxX1Zu-25" value="&lt;pre style=&quot;font-family: &amp;#34;menlo&amp;#34; ; font-size: 9pt&quot;&gt;&lt;pre style=&quot;font-family: &amp;#34;menlo&amp;#34; ; font-size: 9pt&quot;&gt;&lt;pre style=&quot;font-family: &amp;#34;menlo&amp;#34; ; font-size: 9pt&quot;&gt;&lt;span style=&quot;color: #660e7a ; font-weight: bold ; font-style: italic&quot;&gt;CHECK_CLIENT_CONFIG&lt;/span&gt;&lt;/pre&gt;&lt;/pre&gt;&lt;/pre&gt;" style="rounded=0;whiteSpace=wrap;html=1;" parent="1" vertex="1">
          <mxGeometry x="1874.7853767136658" y="353" width="160" height="20" as="geometry"/>
        </mxCell>
        <mxCell id="9mdDHmgzvhIgiJmxX1Zu-31" value="" style="group" parent="1" vertex="1" connectable="0">
          <mxGeometry x="1844.7853767136658" y="480" width="216.0000000000001" height="60" as="geometry"/>
        </mxCell>
        <mxCell id="9mdDHmgzvhIgiJmxX1Zu-26" value="&lt;pre style=&quot;font-family: &amp;#34;menlo&amp;#34; ; font-size: 9pt&quot;&gt;&lt;pre style=&quot;font-family: &amp;#34;menlo&amp;#34; ; font-size: 9pt&quot;&gt;&lt;pre style=&quot;font-family: &amp;#34;menlo&amp;#34; ; font-size: 9pt&quot;&gt;&lt;pre style=&quot;font-family: &amp;#34;menlo&amp;#34; ; font-size: 9pt&quot;&gt;&lt;span style=&quot;color: #660e7a ; font-weight: bold ; font-style: italic&quot;&gt;GET_CONSUMER_LIST_BY_GROUP&lt;/span&gt;&lt;/pre&gt;&lt;/pre&gt;&lt;/pre&gt;&lt;/pre&gt;" style="rounded=0;whiteSpace=wrap;html=1;" parent="9mdDHmgzvhIgiJmxX1Zu-31" vertex="1">
          <mxGeometry x="27.180124223602604" width="188.8198757763975" height="20" as="geometry"/>
        </mxCell>
        <mxCell id="9mdDHmgzvhIgiJmxX1Zu-27" value="&lt;pre style=&quot;font-family: &amp;#34;menlo&amp;#34; ; font-size: 9pt&quot;&gt;&lt;pre style=&quot;font-family: &amp;#34;menlo&amp;#34; ; font-size: 9pt&quot;&gt;&lt;pre style=&quot;font-family: &amp;#34;menlo&amp;#34; ; font-size: 9pt&quot;&gt;&lt;pre style=&quot;font-family: &amp;#34;menlo&amp;#34; ; font-size: 9pt&quot;&gt;&lt;span style=&quot;color: #660e7a ; font-weight: bold ; font-style: italic&quot;&gt;UPDATE_CONSUMER_OFFSET&lt;/span&gt;&lt;/pre&gt;&lt;/pre&gt;&lt;/pre&gt;&lt;/pre&gt;" style="rounded=0;whiteSpace=wrap;html=1;" parent="9mdDHmgzvhIgiJmxX1Zu-31" vertex="1">
          <mxGeometry x="27.180124223602604" y="20" width="188.8198757763975" height="20" as="geometry"/>
        </mxCell>
        <mxCell id="9mdDHmgzvhIgiJmxX1Zu-28" value="&lt;pre style=&quot;font-family: &amp;#34;menlo&amp;#34; ; font-size: 9pt&quot;&gt;&lt;pre style=&quot;font-family: &amp;#34;menlo&amp;#34; ; font-size: 9pt&quot;&gt;&lt;pre style=&quot;font-family: &amp;#34;menlo&amp;#34; ; font-size: 9pt&quot;&gt;&lt;pre style=&quot;font-family: &amp;#34;menlo&amp;#34; ; font-size: 9pt&quot;&gt;&lt;pre style=&quot;font-family: &amp;#34;menlo&amp;#34; ; font-size: 9pt&quot;&gt;&lt;span style=&quot;color: #660e7a ; font-weight: bold ; font-style: italic&quot;&gt;QUERY_CONSUMER_OFFSET&lt;/span&gt;&lt;/pre&gt;&lt;/pre&gt;&lt;/pre&gt;&lt;/pre&gt;&lt;/pre&gt;" style="rounded=0;whiteSpace=wrap;html=1;" parent="9mdDHmgzvhIgiJmxX1Zu-31" vertex="1">
          <mxGeometry x="27.180124223602206" y="40" width="188.8198757763975" height="20" as="geometry"/>
        </mxCell>
        <mxCell id="9mdDHmgzvhIgiJmxX1Zu-32" value="&lt;pre style=&quot;font-family: &amp;#34;menlo&amp;#34; ; font-size: 9pt&quot;&gt;&lt;pre style=&quot;font-family: &amp;#34;menlo&amp;#34; ; font-size: 9pt&quot;&gt;&lt;pre style=&quot;font-family: &amp;#34;menlo&amp;#34; ; font-size: 9pt&quot;&gt;&lt;span style=&quot;color: #660e7a ; font-weight: bold ; font-style: italic&quot;&gt;END_TRANSACTION&lt;/span&gt;&lt;/pre&gt;&lt;/pre&gt;&lt;/pre&gt;" style="rounded=0;whiteSpace=wrap;html=1;" parent="1" vertex="1">
          <mxGeometry x="1874.7853767136658" y="564" width="160" height="20" as="geometry"/>
        </mxCell>
        <mxCell id="9mdDHmgzvhIgiJmxX1Zu-37" value="" style="group" parent="1" vertex="1" connectable="0">
          <mxGeometry x="1874.7853767136658" y="28" width="216.00000000000028" height="82" as="geometry"/>
        </mxCell>
        <mxCell id="9mdDHmgzvhIgiJmxX1Zu-13" value="&lt;pre style=&quot;font-family: &amp;#34;menlo&amp;#34; ; font-size: 9pt&quot;&gt;&lt;span style=&quot;color: #660e7a ; font-weight: bold ; font-style: italic&quot;&gt;CONSUMER_SEND_MSG_BACK&lt;/span&gt;&lt;/pre&gt;" style="rounded=0;whiteSpace=wrap;html=1;" parent="9mdDHmgzvhIgiJmxX1Zu-37" vertex="1">
          <mxGeometry x="0.033746045385498746" y="60.871165644171775" width="215.96625395461461" height="21.12883435582822" as="geometry"/>
        </mxCell>
        <mxCell id="9mdDHmgzvhIgiJmxX1Zu-10" value="&lt;pre style=&quot;font-family: &amp;#34;menlo&amp;#34; ; font-size: 9pt&quot;&gt;&lt;span style=&quot;color: #660e7a ; font-weight: bold ; font-style: italic&quot;&gt;SEND_MESSAGE&lt;/span&gt;&lt;/pre&gt;" style="rounded=0;whiteSpace=wrap;html=1;" parent="9mdDHmgzvhIgiJmxX1Zu-37" vertex="1">
          <mxGeometry x="0.033746045385655066" width="215.96625395461461" height="21.12883435582822" as="geometry"/>
        </mxCell>
        <mxCell id="9mdDHmgzvhIgiJmxX1Zu-11" value="&lt;pre style=&quot;font-family: &amp;#34;menlo&amp;#34; ; font-size: 9pt&quot;&gt;&lt;span style=&quot;color: #660e7a ; font-weight: bold ; font-style: italic&quot;&gt;SEND_MESSAGE_V2&lt;/span&gt;&lt;/pre&gt;" style="rounded=0;whiteSpace=wrap;html=1;" parent="9mdDHmgzvhIgiJmxX1Zu-37" vertex="1">
          <mxGeometry x="0.033746045385655066" y="20.122699386503065" width="215.96625395461461" height="21.12883435582822" as="geometry"/>
        </mxCell>
        <mxCell id="9mdDHmgzvhIgiJmxX1Zu-12" value="&lt;pre style=&quot;font-family: &amp;#34;menlo&amp;#34; ; font-size: 9pt&quot;&gt;&lt;span style=&quot;color: #660e7a ; font-weight: bold ; font-style: italic&quot;&gt;SEND_BATCH_MESSAGE&lt;/span&gt;&lt;/pre&gt;" style="rounded=0;whiteSpace=wrap;html=1;" parent="9mdDHmgzvhIgiJmxX1Zu-37" vertex="1">
          <mxGeometry x="0.033746045385655066" y="40.24539877300613" width="215.96625395461461" height="21.12883435582822" as="geometry"/>
        </mxCell>
        <mxCell id="9mdDHmgzvhIgiJmxX1Zu-44" value="" style="group" parent="1" vertex="1" connectable="0">
          <mxGeometry x="1874.7853767136658" y="197" width="160" height="40" as="geometry"/>
        </mxCell>
        <mxCell id="9mdDHmgzvhIgiJmxX1Zu-21" value="&lt;pre style=&quot;font-family: &amp;#34;menlo&amp;#34; ; font-size: 9pt&quot;&gt;&lt;pre style=&quot;font-family: &amp;#34;menlo&amp;#34; ; font-size: 9pt&quot;&gt;&lt;span style=&quot;color: #660e7a ; font-weight: bold ; font-style: italic&quot;&gt;QUERY_MESSAGE&lt;/span&gt;&lt;/pre&gt;&lt;/pre&gt;" style="rounded=0;whiteSpace=wrap;html=1;" parent="9mdDHmgzvhIgiJmxX1Zu-44" vertex="1">
          <mxGeometry width="160" height="20" as="geometry"/>
        </mxCell>
        <mxCell id="9mdDHmgzvhIgiJmxX1Zu-22" value="&lt;pre style=&quot;font-family: &amp;#34;menlo&amp;#34; ; font-size: 9pt&quot;&gt;&lt;pre style=&quot;font-family: &amp;#34;menlo&amp;#34; ; font-size: 9pt&quot;&gt;&lt;span style=&quot;color: #660e7a ; font-weight: bold ; font-style: italic&quot;&gt;VIEW_MESSAGE_BY_ID&lt;/span&gt;&lt;/pre&gt;&lt;/pre&gt;" style="rounded=0;whiteSpace=wrap;html=1;" parent="9mdDHmgzvhIgiJmxX1Zu-44" vertex="1">
          <mxGeometry y="20" width="160" height="20" as="geometry"/>
        </mxCell>
        <mxCell id="9mdDHmgzvhIgiJmxX1Zu-45" value="" style="group" parent="1" vertex="1" connectable="0">
          <mxGeometry x="1874.7853767136658" y="269" width="160" height="40" as="geometry"/>
        </mxCell>
        <mxCell id="9mdDHmgzvhIgiJmxX1Zu-38" value="&lt;pre style=&quot;font-family: &amp;#34;menlo&amp;#34; ; font-size: 9pt&quot;&gt;&lt;pre style=&quot;font-family: &amp;#34;menlo&amp;#34; ; font-size: 9pt&quot;&gt;&lt;pre style=&quot;font-family: &amp;#34;menlo&amp;#34; ; font-size: 9pt&quot;&gt;&lt;pre style=&quot;font-family: &amp;#34;menlo&amp;#34; ; font-size: 9pt&quot;&gt;&lt;span style=&quot;color: #660e7a ; font-weight: bold ; font-style: italic&quot;&gt;GET_BROKER_CONFIG&lt;/span&gt;&lt;/pre&gt;&lt;/pre&gt;&lt;/pre&gt;&lt;/pre&gt;" style="rounded=0;whiteSpace=wrap;html=1;" parent="9mdDHmgzvhIgiJmxX1Zu-45" vertex="1">
          <mxGeometry width="160" height="20" as="geometry"/>
        </mxCell>
        <mxCell id="9mdDHmgzvhIgiJmxX1Zu-39" value="&lt;pre style=&quot;font-family: &amp;#34;menlo&amp;#34; ; font-size: 9pt&quot;&gt;&lt;pre style=&quot;font-family: &amp;#34;menlo&amp;#34; ; font-size: 9pt&quot;&gt;&lt;font color=&quot;#660e7a&quot;&gt;&lt;b&gt;&lt;i&gt;other Codes...&lt;/i&gt;&lt;/b&gt;&lt;/font&gt;&lt;/pre&gt;&lt;/pre&gt;" style="rounded=0;whiteSpace=wrap;html=1;" parent="9mdDHmgzvhIgiJmxX1Zu-45" vertex="1">
          <mxGeometry y="20" width="160" height="20" as="geometry"/>
        </mxCell>
        <mxCell id="9mdDHmgzvhIgiJmxX1Zu-52" value="处理消息发送" style="text;html=1;resizable=0;points=[];autosize=1;align=left;verticalAlign=top;spacingTop=-4;fontSize=16;" parent="1" vertex="1">
          <mxGeometry x="1641" y="45" width="106" height="19" as="geometry"/>
        </mxCell>
        <mxCell id="9mdDHmgzvhIgiJmxX1Zu-53" value="处理消息拉取" style="text;html=1;resizable=0;points=[];autosize=1;align=left;verticalAlign=top;spacingTop=-4;fontSize=16;" parent="1" vertex="1">
          <mxGeometry x="1641" y="118" width="106" height="19" as="geometry"/>
        </mxCell>
        <mxCell id="9mdDHmgzvhIgiJmxX1Zu-54" value="处理消息查询" style="text;html=1;resizable=0;points=[];autosize=1;align=left;verticalAlign=top;spacingTop=-4;fontSize=16;" parent="1" vertex="1">
          <mxGeometry x="1641" y="188" width="106" height="19" as="geometry"/>
        </mxCell>
        <mxCell id="9mdDHmgzvhIgiJmxX1Zu-57" value="处理集群管理" style="text;html=1;resizable=0;points=[];autosize=1;align=left;verticalAlign=top;spacingTop=-4;fontSize=16;" parent="1" vertex="1">
          <mxGeometry x="1641" y="258" width="106" height="19" as="geometry"/>
        </mxCell>
        <mxCell id="9mdDHmgzvhIgiJmxX1Zu-58" value="处理客户端注册" style="text;html=1;resizable=0;points=[];autosize=1;align=left;verticalAlign=top;spacingTop=-4;fontSize=16;" parent="1" vertex="1">
          <mxGeometry x="1633" y="328" width="122" height="19" as="geometry"/>
        </mxCell>
        <mxCell id="9mdDHmgzvhIgiJmxX1Zu-60" value="处理客户端和节点心跳" style="text;html=1;resizable=0;points=[];autosize=1;align=left;verticalAlign=top;spacingTop=-4;fontSize=16;" parent="1" vertex="1">
          <mxGeometry x="1609" y="393" width="170" height="19" as="geometry"/>
        </mxCell>
        <mxCell id="9mdDHmgzvhIgiJmxX1Zu-61" value="处理消费端消费相关业务" style="text;html=1;resizable=0;points=[];autosize=1;align=left;verticalAlign=top;spacingTop=-4;fontSize=16;" parent="1" vertex="1">
          <mxGeometry x="1601" y="471" width="186" height="19" as="geometry"/>
        </mxCell>
        <mxCell id="9mdDHmgzvhIgiJmxX1Zu-62" value="处理事务消息" style="text;html=1;resizable=0;points=[];autosize=1;align=left;verticalAlign=top;spacingTop=-4;fontSize=16;" parent="1" vertex="1">
          <mxGeometry x="1641" y="544" width="106" height="19" as="geometry"/>
        </mxCell>
        <mxCell id="Jm2zQ5XK-Clb0VnWvuZD-5" style="edgeStyle=orthogonalEdgeStyle;rounded=0;orthogonalLoop=1;jettySize=auto;html=1;exitX=1;exitY=0.25;exitDx=0;exitDy=0;entryX=0;entryY=0.25;entryDx=0;entryDy=0;" parent="1" edge="1">
          <mxGeometry relative="1" as="geometry">
            <mxPoint x="-34" y="940" as="sourcePoint"/>
          </mxGeometry>
        </mxCell>
        <mxCell id="Jm2zQ5XK-Clb0VnWvuZD-11" value="&lt;span style=&quot;text-align: left ; white-space: nowrap&quot;&gt;DefaultMQProducer&lt;/span&gt;" style="shape=umlLifeline;perimeter=lifelinePerimeter;whiteSpace=wrap;html=1;container=1;collapsible=0;recursiveResize=0;outlineConnect=0;" parent="1" vertex="1">
          <mxGeometry x="-199" y="880" width="122" height="300" as="geometry"/>
        </mxCell>
        <mxCell id="Jm2zQ5XK-Clb0VnWvuZD-15" value="send" style="html=1;verticalAlign=bottom;endArrow=block;entryX=0.1;entryY=0;entryDx=0;entryDy=0;entryPerimeter=0;" parent="Jm2zQ5XK-Clb0VnWvuZD-11" target="Jm2zQ5XK-Clb0VnWvuZD-14" edge="1">
          <mxGeometry width="80" relative="1" as="geometry">
            <mxPoint x="63" y="88" as="sourcePoint"/>
            <mxPoint x="143" y="88" as="targetPoint"/>
          </mxGeometry>
        </mxCell>
        <mxCell id="Jm2zQ5XK-Clb0VnWvuZD-13" value="&lt;span style=&quot;text-align: left ; white-space: nowrap&quot;&gt;DefaultMQProducerImpl&lt;/span&gt;" style="shape=umlLifeline;perimeter=lifelinePerimeter;whiteSpace=wrap;html=1;container=1;collapsible=0;recursiveResize=0;outlineConnect=0;" parent="1" vertex="1">
          <mxGeometry x="-66" y="880" width="146" height="460" as="geometry"/>
        </mxCell>
        <mxCell id="Jm2zQ5XK-Clb0VnWvuZD-14" value="" style="html=1;points=[];perimeter=orthogonalPerimeter;" parent="Jm2zQ5XK-Clb0VnWvuZD-13" vertex="1">
          <mxGeometry x="69" y="88" width="10" height="332" as="geometry"/>
        </mxCell>
        <mxCell id="t-QVnXXpKsiYp2VGTmY0-25" value="" style="html=1;points=[];perimeter=orthogonalPerimeter;" parent="Jm2zQ5XK-Clb0VnWvuZD-13" vertex="1">
          <mxGeometry x="79" y="285" width="10" height="103" as="geometry"/>
        </mxCell>
        <mxCell id="t-QVnXXpKsiYp2VGTmY0-26" value="sendKernelImpl" style="edgeStyle=orthogonalEdgeStyle;html=1;align=left;spacingLeft=2;endArrow=block;rounded=0;entryX=1;entryY=0;exitX=1;exitY=0.533;exitDx=0;exitDy=0;exitPerimeter=0;" parent="Jm2zQ5XK-Clb0VnWvuZD-13" source="Jm2zQ5XK-Clb0VnWvuZD-14" target="t-QVnXXpKsiYp2VGTmY0-25" edge="1">
          <mxGeometry relative="1" as="geometry">
            <mxPoint x="84" y="265" as="sourcePoint"/>
            <Array as="points">
              <mxPoint x="109" y="265"/>
              <mxPoint x="109" y="285"/>
            </Array>
          </mxGeometry>
        </mxCell>
        <mxCell id="t-QVnXXpKsiYp2VGTmY0-1" value="" style="html=1;verticalAlign=bottom;endArrow=block;rounded=0;" parent="1" edge="1">
          <mxGeometry width="80" relative="1" as="geometry">
            <mxPoint x="13" y="979" as="sourcePoint"/>
            <mxPoint x="12.5" y="1013" as="targetPoint"/>
            <Array as="points">
              <mxPoint x="83.5" y="979"/>
              <mxPoint x="83.5" y="1013"/>
            </Array>
          </mxGeometry>
        </mxCell>
        <mxCell id="t-QVnXXpKsiYp2VGTmY0-7" value="makeSureStateOk" style="text;html=1;resizable=0;points=[];autosize=1;align=left;verticalAlign=top;spacingTop=-4;" parent="1" vertex="1">
          <mxGeometry x="25.5" y="962" width="108" height="14" as="geometry"/>
        </mxCell>
        <mxCell id="t-QVnXXpKsiYp2VGTmY0-10" value="" style="html=1;verticalAlign=bottom;endArrow=block;rounded=0;exitX=0.95;exitY=0.048;exitDx=0;exitDy=0;exitPerimeter=0;" parent="1" edge="1">
          <mxGeometry width="80" relative="1" as="geometry">
            <mxPoint x="12.5" y="1039" as="sourcePoint"/>
            <mxPoint x="13" y="1073.072" as="targetPoint"/>
            <Array as="points">
              <mxPoint x="47.5" y="1039.072"/>
              <mxPoint x="84" y="1039.072"/>
              <mxPoint x="84" y="1073.072"/>
            </Array>
          </mxGeometry>
        </mxCell>
        <mxCell id="t-QVnXXpKsiYp2VGTmY0-11" value="tryToFindTopiccPublishInfo" style="text;html=1;resizable=0;points=[];autosize=1;align=left;verticalAlign=top;spacingTop=-4;" parent="1" vertex="1">
          <mxGeometry x="25.5" y="1023" width="153" height="14" as="geometry"/>
        </mxCell>
        <mxCell id="t-QVnXXpKsiYp2VGTmY0-12" value="&lt;span style=&quot;text-align: left ; white-space: nowrap&quot;&gt;MQFaultStrategy&lt;/span&gt;" style="shape=umlLifeline;perimeter=lifelinePerimeter;whiteSpace=wrap;html=1;container=1;collapsible=0;recursiveResize=0;outlineConnect=0;" parent="1" vertex="1">
          <mxGeometry x="129" y="880" width="122" height="276" as="geometry"/>
        </mxCell>
        <mxCell id="t-QVnXXpKsiYp2VGTmY0-15" value="" style="html=1;points=[];perimeter=orthogonalPerimeter;" parent="t-QVnXXpKsiYp2VGTmY0-12" vertex="1">
          <mxGeometry x="56.5" y="211" width="10" height="26" as="geometry"/>
        </mxCell>
        <mxCell id="t-QVnXXpKsiYp2VGTmY0-16" value="selectOneMessageQueue" style="html=1;verticalAlign=bottom;endArrow=block;entryX=0;entryY=0;" parent="1" target="t-QVnXXpKsiYp2VGTmY0-15" edge="1">
          <mxGeometry relative="1" as="geometry">
            <mxPoint x="13" y="1091" as="sourcePoint"/>
          </mxGeometry>
        </mxCell>
        <mxCell id="t-QVnXXpKsiYp2VGTmY0-17" value="" style="html=1;verticalAlign=bottom;endArrow=open;dashed=1;endSize=8;exitX=0;exitY=0.95;" parent="1" source="t-QVnXXpKsiYp2VGTmY0-15" edge="1">
          <mxGeometry relative="1" as="geometry">
            <mxPoint x="16" y="1116" as="targetPoint"/>
          </mxGeometry>
        </mxCell>
        <mxCell id="t-QVnXXpKsiYp2VGTmY0-21" value="MQClientAPIImpl" style="html=1;points=[];perimeter=orthogonalPerimeter;shape=umlLifeline;participant=label;fontFamily=Helvetica;fontSize=12;fontColor=#000000;align=center;strokeColor=#000000;fillColor=#ffffff;recursiveResize=0;container=1;collapsible=0;" parent="1" vertex="1">
          <mxGeometry x="275" y="880" width="100" height="607" as="geometry"/>
        </mxCell>
        <mxCell id="t-QVnXXpKsiYp2VGTmY0-27" value="" style="html=1;points=[];perimeter=orthogonalPerimeter;" parent="t-QVnXXpKsiYp2VGTmY0-21" vertex="1">
          <mxGeometry x="45" y="297" width="10" height="81" as="geometry"/>
        </mxCell>
        <mxCell id="t-QVnXXpKsiYp2VGTmY0-28" value="sendMessage" style="html=1;verticalAlign=bottom;endArrow=block;entryX=0;entryY=0;" parent="t-QVnXXpKsiYp2VGTmY0-21" target="t-QVnXXpKsiYp2VGTmY0-27" edge="1">
          <mxGeometry relative="1" as="geometry">
            <mxPoint x="-251" y="297" as="sourcePoint"/>
          </mxGeometry>
        </mxCell>
        <mxCell id="t-QVnXXpKsiYp2VGTmY0-22" value="NettyRemotingClient" style="shape=umlLifeline;perimeter=lifelinePerimeter;whiteSpace=wrap;html=1;container=1;collapsible=0;recursiveResize=0;outlineConnect=0;" parent="1" vertex="1">
          <mxGeometry x="395" y="880" width="130" height="621" as="geometry"/>
        </mxCell>
        <mxCell id="UEMz9osupsElK1RNM5Bz-1" value="" style="html=1;points=[];perimeter=orthogonalPerimeter;" parent="t-QVnXXpKsiYp2VGTmY0-22" vertex="1">
          <mxGeometry x="60" y="311" width="10" height="40" as="geometry"/>
        </mxCell>
        <mxCell id="t-QVnXXpKsiYp2VGTmY0-29" value="" style="html=1;verticalAlign=bottom;endArrow=open;dashed=1;endSize=8;exitX=0;exitY=0.95;" parent="1" source="t-QVnXXpKsiYp2VGTmY0-27" target="t-QVnXXpKsiYp2VGTmY0-25" edge="1">
          <mxGeometry relative="1" as="geometry">
            <mxPoint x="250" y="1253" as="targetPoint"/>
          </mxGeometry>
        </mxCell>
        <mxCell id="UEMz9osupsElK1RNM5Bz-3" value="" style="html=1;verticalAlign=bottom;endArrow=open;dashed=1;endSize=8;exitX=0;exitY=0.95;entryX=1;entryY=0.642;entryDx=0;entryDy=0;entryPerimeter=0;" parent="1" source="UEMz9osupsElK1RNM5Bz-1" target="t-QVnXXpKsiYp2VGTmY0-27" edge="1">
          <mxGeometry relative="1" as="geometry">
            <mxPoint x="385" y="1267" as="targetPoint"/>
          </mxGeometry>
        </mxCell>
        <mxCell id="UEMz9osupsElK1RNM5Bz-2" value="invokeSync" style="html=1;verticalAlign=bottom;endArrow=block;entryX=0;entryY=0;exitX=1.2;exitY=0.173;exitDx=0;exitDy=0;exitPerimeter=0;" parent="1" source="t-QVnXXpKsiYp2VGTmY0-27" target="UEMz9osupsElK1RNM5Bz-1" edge="1">
          <mxGeometry relative="1" as="geometry">
            <mxPoint x="385" y="1191" as="sourcePoint"/>
          </mxGeometry>
        </mxCell>
        <mxCell id="UEMz9osupsElK1RNM5Bz-5" value="SendMessageProcessor" style="shape=umlLifeline;perimeter=lifelinePerimeter;whiteSpace=wrap;html=1;container=1;collapsible=0;recursiveResize=0;outlineConnect=0;" parent="1" vertex="1">
          <mxGeometry x="-282" y="1533" width="141" height="550" as="geometry"/>
        </mxCell>
        <mxCell id="UEMz9osupsElK1RNM5Bz-10" value="" style="html=1;points=[];perimeter=orthogonalPerimeter;" parent="UEMz9osupsElK1RNM5Bz-5" vertex="1">
          <mxGeometry x="66" y="125" width="10" height="145" as="geometry"/>
        </mxCell>
        <mxCell id="UEMz9osupsElK1RNM5Bz-11" value="sendMessage" style="edgeStyle=orthogonalEdgeStyle;html=1;align=left;spacingLeft=2;endArrow=block;rounded=0;entryX=1;entryY=0;" parent="UEMz9osupsElK1RNM5Bz-5" target="UEMz9osupsElK1RNM5Bz-10" edge="1">
          <mxGeometry relative="1" as="geometry">
            <mxPoint x="71" y="105" as="sourcePoint"/>
            <Array as="points">
              <mxPoint x="96" y="105"/>
            </Array>
          </mxGeometry>
        </mxCell>
        <mxCell id="UEMz9osupsElK1RNM5Bz-6" value="DefaultMessageStore" style="shape=umlLifeline;perimeter=lifelinePerimeter;whiteSpace=wrap;html=1;container=1;collapsible=0;recursiveResize=0;outlineConnect=0;" parent="1" vertex="1">
          <mxGeometry x="-134" y="1533" width="141" height="550" as="geometry"/>
        </mxCell>
        <mxCell id="UEMz9osupsElK1RNM5Bz-7" value="" style="html=1;points=[];perimeter=orthogonalPerimeter;" parent="UEMz9osupsElK1RNM5Bz-6" vertex="1">
          <mxGeometry x="66" y="155" width="10" height="80" as="geometry"/>
        </mxCell>
        <mxCell id="UEMz9osupsElK1RNM5Bz-9" value="" style="html=1;verticalAlign=bottom;endArrow=open;dashed=1;endSize=8;exitX=0;exitY=0.95;entryX=1;entryY=0.724;entryDx=0;entryDy=0;entryPerimeter=0;" parent="1" source="UEMz9osupsElK1RNM5Bz-7" target="UEMz9osupsElK1RNM5Bz-10" edge="1">
          <mxGeometry relative="1" as="geometry">
            <mxPoint x="-138" y="1764" as="targetPoint"/>
          </mxGeometry>
        </mxCell>
        <mxCell id="UEMz9osupsElK1RNM5Bz-8" value="putMessage" style="html=1;verticalAlign=bottom;endArrow=block;entryX=0;entryY=0;" parent="1" source="UEMz9osupsElK1RNM5Bz-10" target="UEMz9osupsElK1RNM5Bz-7" edge="1">
          <mxGeometry relative="1" as="geometry">
            <mxPoint x="-138" y="1688" as="sourcePoint"/>
          </mxGeometry>
        </mxCell>
        <mxCell id="UEMz9osupsElK1RNM5Bz-14" value="CommitLog" style="shape=umlLifeline;perimeter=lifelinePerimeter;whiteSpace=wrap;html=1;container=1;collapsible=0;recursiveResize=0;outlineConnect=0;" parent="1" vertex="1">
          <mxGeometry x="17" y="1533" width="141" height="550" as="geometry"/>
        </mxCell>
        <mxCell id="UEMz9osupsElK1RNM5Bz-19" value="" style="html=1;points=[];perimeter=orthogonalPerimeter;" parent="UEMz9osupsElK1RNM5Bz-14" vertex="1">
          <mxGeometry x="65" y="170" width="10" height="59" as="geometry"/>
        </mxCell>
        <mxCell id="UEMz9osupsElK1RNM5Bz-20" value="putMessage" style="html=1;verticalAlign=bottom;endArrow=block;entryX=0;entryY=0;exitX=0.9;exitY=0.163;exitDx=0;exitDy=0;exitPerimeter=0;" parent="1" source="UEMz9osupsElK1RNM5Bz-7" target="UEMz9osupsElK1RNM5Bz-19" edge="1">
          <mxGeometry relative="1" as="geometry">
            <mxPoint x="12" y="1703" as="sourcePoint"/>
          </mxGeometry>
        </mxCell>
        <mxCell id="UEMz9osupsElK1RNM5Bz-21" value="" style="html=1;verticalAlign=bottom;endArrow=open;dashed=1;endSize=8;exitX=0;exitY=0.95;entryX=1.2;entryY=0.863;entryDx=0;entryDy=0;entryPerimeter=0;" parent="1" source="UEMz9osupsElK1RNM5Bz-19" target="UEMz9osupsElK1RNM5Bz-7" edge="1">
          <mxGeometry relative="1" as="geometry">
            <mxPoint x="12" y="1779" as="targetPoint"/>
          </mxGeometry>
        </mxCell>
        <mxCell id="UEMz9osupsElK1RNM5Bz-23" value="MappedFile" style="shape=umlLifeline;perimeter=lifelinePerimeter;whiteSpace=wrap;html=1;container=1;collapsible=0;recursiveResize=0;outlineConnect=0;" parent="1" vertex="1">
          <mxGeometry x="169" y="1533" width="141" height="550" as="geometry"/>
        </mxCell>
        <mxCell id="UEMz9osupsElK1RNM5Bz-28" value="" style="html=1;points=[];perimeter=orthogonalPerimeter;" parent="UEMz9osupsElK1RNM5Bz-23" vertex="1">
          <mxGeometry x="65" y="170" width="10" height="56" as="geometry"/>
        </mxCell>
        <mxCell id="UEMz9osupsElK1RNM5Bz-30" value="" style="html=1;verticalAlign=bottom;endArrow=open;dashed=1;endSize=8;exitX=0;exitY=0.95;" parent="UEMz9osupsElK1RNM5Bz-23" source="UEMz9osupsElK1RNM5Bz-28" edge="1">
          <mxGeometry relative="1" as="geometry">
            <mxPoint x="-76" y="223" as="targetPoint"/>
          </mxGeometry>
        </mxCell>
        <mxCell id="UEMz9osupsElK1RNM5Bz-33" value="" style="html=1;points=[];perimeter=orthogonalPerimeter;" parent="UEMz9osupsElK1RNM5Bz-23" vertex="1">
          <mxGeometry x="75" y="190" width="10" height="34" as="geometry"/>
        </mxCell>
        <mxCell id="UEMz9osupsElK1RNM5Bz-34" value="appendMessageInner" style="edgeStyle=orthogonalEdgeStyle;html=1;align=left;spacingLeft=2;endArrow=block;rounded=0;entryX=1;entryY=0;" parent="UEMz9osupsElK1RNM5Bz-23" target="UEMz9osupsElK1RNM5Bz-33" edge="1">
          <mxGeometry relative="1" as="geometry">
            <mxPoint x="80" y="170" as="sourcePoint"/>
            <Array as="points">
              <mxPoint x="105" y="170"/>
            </Array>
          </mxGeometry>
        </mxCell>
        <mxCell id="UEMz9osupsElK1RNM5Bz-29" value="appendMessage" style="html=1;verticalAlign=bottom;endArrow=block;entryX=0;entryY=0;" parent="1" source="UEMz9osupsElK1RNM5Bz-14" target="UEMz9osupsElK1RNM5Bz-28" edge="1">
          <mxGeometry relative="1" as="geometry">
            <mxPoint x="164" y="1703" as="sourcePoint"/>
          </mxGeometry>
        </mxCell>
        <mxCell id="t-QVnXXpKsiYp2VGTmY0-32" value="AppendMessageCallback" style="shape=umlLifeline;perimeter=lifelinePerimeter;whiteSpace=wrap;html=1;container=1;collapsible=0;recursiveResize=0;outlineConnect=0;" parent="1" vertex="1">
          <mxGeometry x="335" y="1533" width="141" height="550" as="geometry"/>
        </mxCell>
        <mxCell id="t-QVnXXpKsiYp2VGTmY0-39" value="" style="html=1;points=[];perimeter=orthogonalPerimeter;" parent="t-QVnXXpKsiYp2VGTmY0-32" vertex="1">
          <mxGeometry x="61" y="207" width="10" height="15" as="geometry"/>
        </mxCell>
        <mxCell id="t-QVnXXpKsiYp2VGTmY0-40" value="doAppend" style="html=1;verticalAlign=bottom;endArrow=block;entryX=0;entryY=0;exitX=1.1;exitY=0.5;exitDx=0;exitDy=0;exitPerimeter=0;" parent="1" source="UEMz9osupsElK1RNM5Bz-33" target="t-QVnXXpKsiYp2VGTmY0-39" edge="1">
          <mxGeometry relative="1" as="geometry">
            <mxPoint x="255" y="1728" as="sourcePoint"/>
          </mxGeometry>
        </mxCell>
        <mxCell id="t-QVnXXpKsiYp2VGTmY0-41" value="" style="html=1;verticalAlign=bottom;endArrow=open;dashed=1;endSize=8;exitX=0;exitY=0.95;" parent="1" source="t-QVnXXpKsiYp2VGTmY0-39" edge="1">
          <mxGeometry relative="1" as="geometry">
            <mxPoint x="253" y="1753" as="targetPoint"/>
          </mxGeometry>
        </mxCell>
        <mxCell id="_kz9y1GY4N7vQfYLWZS8-1" value="CommitLog" style="rounded=0;whiteSpace=wrap;html=1;" parent="1" vertex="1">
          <mxGeometry x="-128" y="2499" width="156" height="110" as="geometry"/>
        </mxCell>
        <mxCell id="_kz9y1GY4N7vQfYLWZS8-12" style="edgeStyle=isometricEdgeStyle;rounded=0;orthogonalLoop=1;jettySize=auto;html=1;exitX=1;exitY=0.75;exitDx=0;exitDy=0;entryX=0;entryY=0.5;entryDx=0;entryDy=0;" parent="1" source="_kz9y1GY4N7vQfYLWZS8-2" target="_kz9y1GY4N7vQfYLWZS8-8" edge="1">
          <mxGeometry relative="1" as="geometry"/>
        </mxCell>
        <mxCell id="_kz9y1GY4N7vQfYLWZS8-2" value="MapppedFile-0" style="rounded=0;whiteSpace=wrap;html=1;" parent="1" vertex="1">
          <mxGeometry x="-107" y="2646" width="120" height="30" as="geometry"/>
        </mxCell>
        <mxCell id="_kz9y1GY4N7vQfYLWZS8-3" value="MapppedFile-1" style="rounded=0;whiteSpace=wrap;html=1;" parent="1" vertex="1">
          <mxGeometry x="-107" y="2676" width="120" height="30" as="geometry"/>
        </mxCell>
        <mxCell id="_kz9y1GY4N7vQfYLWZS8-4" value="MapppedFile-2" style="rounded=0;whiteSpace=wrap;html=1;" parent="1" vertex="1">
          <mxGeometry x="-107" y="2706" width="120" height="30" as="geometry"/>
        </mxCell>
        <mxCell id="_kz9y1GY4N7vQfYLWZS8-6" style="edgeStyle=orthogonalEdgeStyle;rounded=0;orthogonalLoop=1;jettySize=auto;html=1;exitX=0.5;exitY=1;exitDx=0;exitDy=0;entryX=0.5;entryY=0;entryDx=0;entryDy=0;" parent="1" source="_kz9y1GY4N7vQfYLWZS8-5" target="_kz9y1GY4N7vQfYLWZS8-2" edge="1">
          <mxGeometry relative="1" as="geometry"/>
        </mxCell>
        <mxCell id="_kz9y1GY4N7vQfYLWZS8-5" value="MapppedFileQueue" style="rounded=0;whiteSpace=wrap;html=1;" parent="1" vertex="1">
          <mxGeometry x="-107" y="2571" width="120" height="30" as="geometry"/>
        </mxCell>
        <mxCell id="_kz9y1GY4N7vQfYLWZS8-7" value="..." style="rounded=0;whiteSpace=wrap;html=1;" parent="1" vertex="1">
          <mxGeometry x="-107" y="2736" width="120" height="30" as="geometry"/>
        </mxCell>
        <mxCell id="_kz9y1GY4N7vQfYLWZS8-8" value="Message-0" style="rounded=0;whiteSpace=wrap;html=1;" parent="1" vertex="1">
          <mxGeometry x="98" y="2566" width="120" height="30" as="geometry"/>
        </mxCell>
        <mxCell id="_kz9y1GY4N7vQfYLWZS8-9" value="Message-1" style="rounded=0;whiteSpace=wrap;html=1;" parent="1" vertex="1">
          <mxGeometry x="98" y="2596" width="120" height="30" as="geometry"/>
        </mxCell>
        <mxCell id="_kz9y1GY4N7vQfYLWZS8-10" value="Message-2" style="rounded=0;whiteSpace=wrap;html=1;" parent="1" vertex="1">
          <mxGeometry x="98" y="2626" width="120" height="30" as="geometry"/>
        </mxCell>
        <mxCell id="_kz9y1GY4N7vQfYLWZS8-11" value="..." style="rounded=0;whiteSpace=wrap;html=1;" parent="1" vertex="1">
          <mxGeometry x="98" y="2656" width="120" height="30" as="geometry"/>
        </mxCell>
        <mxCell id="_kz9y1GY4N7vQfYLWZS8-13" value="" style="shape=flexArrow;endArrow=classic;html=1;" parent="1" edge="1">
          <mxGeometry width="50" height="50" relative="1" as="geometry">
            <mxPoint x="244" y="2640.5" as="sourcePoint"/>
            <mxPoint x="308" y="2641" as="targetPoint"/>
          </mxGeometry>
        </mxCell>
        <mxCell id="_kz9y1GY4N7vQfYLWZS8-14" value="DoReput" style="text;html=1;resizable=0;points=[];autosize=1;align=left;verticalAlign=top;spacingTop=-4;" parent="1" vertex="1">
          <mxGeometry x="248" y="2602" width="57" height="14" as="geometry"/>
        </mxCell>
        <mxCell id="_kz9y1GY4N7vQfYLWZS8-17" value="ConsumeQueue" style="rounded=0;whiteSpace=wrap;html=1;" parent="1" vertex="1">
          <mxGeometry x="330" y="2507.5" width="156" height="110" as="geometry"/>
        </mxCell>
        <mxCell id="_kz9y1GY4N7vQfYLWZS8-28" style="edgeStyle=isometricEdgeStyle;rounded=0;orthogonalLoop=1;jettySize=auto;html=1;exitX=1;exitY=0.5;exitDx=0;exitDy=0;entryX=0;entryY=0.5;entryDx=0;entryDy=0;" parent="1" source="_kz9y1GY4N7vQfYLWZS8-18" target="_kz9y1GY4N7vQfYLWZS8-24" edge="1">
          <mxGeometry relative="1" as="geometry"/>
        </mxCell>
        <mxCell id="_kz9y1GY4N7vQfYLWZS8-18" value="MapppedFile-0" style="rounded=0;whiteSpace=wrap;html=1;" parent="1" vertex="1">
          <mxGeometry x="351" y="2654.5" width="120" height="30" as="geometry"/>
        </mxCell>
        <mxCell id="_kz9y1GY4N7vQfYLWZS8-19" value="MapppedFile-1" style="rounded=0;whiteSpace=wrap;html=1;" parent="1" vertex="1">
          <mxGeometry x="351" y="2684.5" width="120" height="30" as="geometry"/>
        </mxCell>
        <mxCell id="_kz9y1GY4N7vQfYLWZS8-20" value="MapppedFile-2" style="rounded=0;whiteSpace=wrap;html=1;" parent="1" vertex="1">
          <mxGeometry x="351" y="2714.5" width="120" height="30" as="geometry"/>
        </mxCell>
        <mxCell id="_kz9y1GY4N7vQfYLWZS8-21" style="edgeStyle=orthogonalEdgeStyle;rounded=0;orthogonalLoop=1;jettySize=auto;html=1;exitX=0.5;exitY=1;exitDx=0;exitDy=0;entryX=0.5;entryY=0;entryDx=0;entryDy=0;" parent="1" source="_kz9y1GY4N7vQfYLWZS8-22" target="_kz9y1GY4N7vQfYLWZS8-18" edge="1">
          <mxGeometry relative="1" as="geometry"/>
        </mxCell>
        <mxCell id="_kz9y1GY4N7vQfYLWZS8-22" value="MapppedFileQueue" style="rounded=0;whiteSpace=wrap;html=1;" parent="1" vertex="1">
          <mxGeometry x="351" y="2579.5" width="120" height="30" as="geometry"/>
        </mxCell>
        <mxCell id="_kz9y1GY4N7vQfYLWZS8-23" value="..." style="rounded=0;whiteSpace=wrap;html=1;" parent="1" vertex="1">
          <mxGeometry x="351" y="2744.5" width="120" height="30" as="geometry"/>
        </mxCell>
        <mxCell id="_kz9y1GY4N7vQfYLWZS8-32" style="edgeStyle=isometricEdgeStyle;rounded=0;orthogonalLoop=1;jettySize=auto;html=1;exitX=0.25;exitY=0;exitDx=0;exitDy=0;entryX=0;entryY=0.5;entryDx=0;entryDy=0;" parent="1" source="_kz9y1GY4N7vQfYLWZS8-24" target="_kz9y1GY4N7vQfYLWZS8-29" edge="1">
          <mxGeometry relative="1" as="geometry"/>
        </mxCell>
        <mxCell id="_kz9y1GY4N7vQfYLWZS8-24" value="ConsumeItem-0" style="rounded=0;whiteSpace=wrap;html=1;" parent="1" vertex="1">
          <mxGeometry x="576" y="2561" width="120" height="30" as="geometry"/>
        </mxCell>
        <mxCell id="_kz9y1GY4N7vQfYLWZS8-25" value="ConsumeItem-1" style="rounded=0;whiteSpace=wrap;html=1;" parent="1" vertex="1">
          <mxGeometry x="576" y="2591" width="120" height="30" as="geometry"/>
        </mxCell>
        <mxCell id="_kz9y1GY4N7vQfYLWZS8-26" value="ConsumeItem-2" style="rounded=0;whiteSpace=wrap;html=1;" parent="1" vertex="1">
          <mxGeometry x="576" y="2621" width="120" height="30" as="geometry"/>
        </mxCell>
        <mxCell id="_kz9y1GY4N7vQfYLWZS8-27" value="..." style="rounded=0;whiteSpace=wrap;html=1;" parent="1" vertex="1">
          <mxGeometry x="576" y="2651" width="120" height="30" as="geometry"/>
        </mxCell>
        <mxCell id="_kz9y1GY4N7vQfYLWZS8-29" value="LogOffset" style="rounded=0;whiteSpace=wrap;html=1;" parent="1" vertex="1">
          <mxGeometry x="563" y="2499" width="61" height="30" as="geometry"/>
        </mxCell>
        <mxCell id="_kz9y1GY4N7vQfYLWZS8-30" value="size" style="rounded=0;whiteSpace=wrap;html=1;" parent="1" vertex="1">
          <mxGeometry x="624" y="2499" width="61" height="30" as="geometry"/>
        </mxCell>
        <mxCell id="_kz9y1GY4N7vQfYLWZS8-31" value="tag Hash" style="rounded=0;whiteSpace=wrap;html=1;" parent="1" vertex="1">
          <mxGeometry x="685" y="2499" width="61" height="30" as="geometry"/>
        </mxCell>
        <mxCell id="Lx_rTLUNLYmFt4STVL45-1" style="edgeStyle=none;rounded=0;orthogonalLoop=1;jettySize=auto;html=1;exitX=1;exitY=0.5;exitDx=0;exitDy=0;entryX=0;entryY=0.5;entryDx=0;entryDy=0;" parent="1" source="Lx_rTLUNLYmFt4STVL45-2" target="Lx_rTLUNLYmFt4STVL45-4" edge="1">
          <mxGeometry relative="1" as="geometry">
            <mxPoint x="59" y="-631" as="targetPoint"/>
          </mxGeometry>
        </mxCell>
        <mxCell id="Lx_rTLUNLYmFt4STVL45-2" value="Acceptor" style="ellipse;whiteSpace=wrap;html=1;" parent="1" vertex="1">
          <mxGeometry x="-98" y="-663" width="120" height="63" as="geometry"/>
        </mxCell>
        <mxCell id="Lx_rTLUNLYmFt4STVL45-3" style="edgeStyle=orthogonalEdgeStyle;curved=1;rounded=0;orthogonalLoop=1;jettySize=auto;html=1;exitX=0;exitY=1;exitDx=0;exitDy=0;entryX=0.5;entryY=0;entryDx=0;entryDy=0;" parent="1" source="Lx_rTLUNLYmFt4STVL45-4" target="Lx_rTLUNLYmFt4STVL45-21" edge="1">
          <mxGeometry relative="1" as="geometry">
            <mxPoint x="23" y="-497" as="targetPoint"/>
          </mxGeometry>
        </mxCell>
        <mxCell id="Lx_rTLUNLYmFt4STVL45-4" value="Reactor&lt;br&gt;Thread Pool" style="ellipse;whiteSpace=wrap;html=1;" parent="1" vertex="1">
          <mxGeometry x="115" y="-663" width="120" height="63" as="geometry"/>
        </mxCell>
        <mxCell id="Lx_rTLUNLYmFt4STVL45-5" style="edgeStyle=none;rounded=0;orthogonalLoop=1;jettySize=auto;html=1;exitX=1;exitY=0.5;exitDx=0;exitDy=0;entryX=0;entryY=0.5;entryDx=0;entryDy=0;" parent="1" source="Lx_rTLUNLYmFt4STVL45-6" target="Lx_rTLUNLYmFt4STVL45-2" edge="1">
          <mxGeometry relative="1" as="geometry"/>
        </mxCell>
        <mxCell id="Lx_rTLUNLYmFt4STVL45-6" value="Client" style="ellipse;whiteSpace=wrap;html=1;" parent="1" vertex="1">
          <mxGeometry x="-260" y="-651.5" width="88" height="40" as="geometry"/>
        </mxCell>
        <mxCell id="Lx_rTLUNLYmFt4STVL45-7" style="edgeStyle=none;rounded=0;orthogonalLoop=1;jettySize=auto;html=1;exitX=1;exitY=0.5;exitDx=0;exitDy=0;" parent="1" source="Lx_rTLUNLYmFt4STVL45-8" edge="1">
          <mxGeometry relative="1" as="geometry">
            <mxPoint x="-97" y="-634" as="targetPoint"/>
          </mxGeometry>
        </mxCell>
        <mxCell id="Lx_rTLUNLYmFt4STVL45-8" value="Client" style="ellipse;whiteSpace=wrap;html=1;" parent="1" vertex="1">
          <mxGeometry x="-260" y="-593" width="88" height="40" as="geometry"/>
        </mxCell>
        <mxCell id="Lx_rTLUNLYmFt4STVL45-9" style="edgeStyle=none;rounded=0;orthogonalLoop=1;jettySize=auto;html=1;exitX=1;exitY=0.5;exitDx=0;exitDy=0;entryX=0;entryY=0.5;entryDx=0;entryDy=0;" parent="1" source="Lx_rTLUNLYmFt4STVL45-10" target="Lx_rTLUNLYmFt4STVL45-2" edge="1">
          <mxGeometry relative="1" as="geometry"/>
        </mxCell>
        <mxCell id="Lx_rTLUNLYmFt4STVL45-10" value="Client" style="ellipse;whiteSpace=wrap;html=1;" parent="1" vertex="1">
          <mxGeometry x="-243" y="-534" width="88" height="40" as="geometry"/>
        </mxCell>
        <mxCell id="Lx_rTLUNLYmFt4STVL45-11" value="Dispatch" style="text;html=1;resizable=0;points=[];autosize=1;align=left;verticalAlign=top;spacingTop=-4;" parent="1" vertex="1">
          <mxGeometry x="41.5" y="-647" width="57" height="14" as="geometry"/>
        </mxCell>
        <mxCell id="Lx_rTLUNLYmFt4STVL45-12" style="edgeStyle=none;rounded=0;orthogonalLoop=1;jettySize=auto;html=1;exitX=1;exitY=0.5;exitDx=0;exitDy=0;entryX=0;entryY=0.5;entryDx=0;entryDy=0;" parent="1" source="Lx_rTLUNLYmFt4STVL45-13" target="Lx_rTLUNLYmFt4STVL45-25" edge="1">
          <mxGeometry relative="1" as="geometry"/>
        </mxCell>
        <mxCell id="Lx_rTLUNLYmFt4STVL45-13" value="publicExecutor" style="rounded=1;whiteSpace=wrap;html=1;" parent="1" vertex="1">
          <mxGeometry x="181.5" y="-520.5" width="139" height="40" as="geometry"/>
        </mxCell>
        <mxCell id="Lx_rTLUNLYmFt4STVL45-14" style="edgeStyle=none;rounded=0;orthogonalLoop=1;jettySize=auto;html=1;exitX=1;exitY=0.5;exitDx=0;exitDy=0;entryX=0;entryY=0.5;entryDx=0;entryDy=0;" parent="1" source="Lx_rTLUNLYmFt4STVL45-15" target="Lx_rTLUNLYmFt4STVL45-23" edge="1">
          <mxGeometry relative="1" as="geometry"/>
        </mxCell>
        <mxCell id="Lx_rTLUNLYmFt4STVL45-15" value="sendMessageExecutor" style="rounded=1;whiteSpace=wrap;html=1;" parent="1" vertex="1">
          <mxGeometry x="182.5" y="-465.5" width="136" height="40" as="geometry"/>
        </mxCell>
        <mxCell id="Lx_rTLUNLYmFt4STVL45-16" style="edgeStyle=none;rounded=0;orthogonalLoop=1;jettySize=auto;html=1;exitX=1;exitY=0.5;exitDx=0;exitDy=0;entryX=0;entryY=0.5;entryDx=0;entryDy=0;" parent="1" source="Lx_rTLUNLYmFt4STVL45-17" target="Lx_rTLUNLYmFt4STVL45-24" edge="1">
          <mxGeometry relative="1" as="geometry"/>
        </mxCell>
        <mxCell id="Lx_rTLUNLYmFt4STVL45-17" value="pullMessageExecutor" style="rounded=1;whiteSpace=wrap;html=1;" parent="1" vertex="1">
          <mxGeometry x="183.5" y="-415.5" width="136" height="40" as="geometry"/>
        </mxCell>
        <mxCell id="Lx_rTLUNLYmFt4STVL45-18" style="edgeStyle=none;rounded=0;orthogonalLoop=1;jettySize=auto;html=1;exitX=1;exitY=0.5;exitDx=0;exitDy=0;entryX=0;entryY=0.5;entryDx=0;entryDy=0;" parent="1" source="Lx_rTLUNLYmFt4STVL45-21" target="Lx_rTLUNLYmFt4STVL45-13" edge="1">
          <mxGeometry relative="1" as="geometry"/>
        </mxCell>
        <mxCell id="Lx_rTLUNLYmFt4STVL45-19" style="edgeStyle=none;rounded=0;orthogonalLoop=1;jettySize=auto;html=1;exitX=1;exitY=0.5;exitDx=0;exitDy=0;entryX=0;entryY=0.5;entryDx=0;entryDy=0;" parent="1" source="Lx_rTLUNLYmFt4STVL45-21" target="Lx_rTLUNLYmFt4STVL45-15" edge="1">
          <mxGeometry relative="1" as="geometry"/>
        </mxCell>
        <mxCell id="Lx_rTLUNLYmFt4STVL45-20" style="edgeStyle=none;rounded=0;orthogonalLoop=1;jettySize=auto;html=1;exitX=1;exitY=0.5;exitDx=0;exitDy=0;entryX=0;entryY=0.5;entryDx=0;entryDy=0;" parent="1" source="Lx_rTLUNLYmFt4STVL45-21" target="Lx_rTLUNLYmFt4STVL45-17" edge="1">
          <mxGeometry relative="1" as="geometry"/>
        </mxCell>
        <mxCell id="Lx_rTLUNLYmFt4STVL45-21" value="NettyServerHandler" style="rounded=0;whiteSpace=wrap;html=1;" parent="1" vertex="1">
          <mxGeometry x="-40" y="-480.5" width="120" height="42" as="geometry"/>
        </mxCell>
        <mxCell id="Lx_rTLUNLYmFt4STVL45-22" value="dispatch" style="text;html=1;resizable=0;points=[];autosize=1;align=left;verticalAlign=top;spacingTop=-4;" parent="1" vertex="1">
          <mxGeometry x="110" y="-514" width="55" height="14" as="geometry"/>
        </mxCell>
        <mxCell id="Lx_rTLUNLYmFt4STVL45-23" value="SendMessageProcessor" style="rounded=0;whiteSpace=wrap;html=1;" parent="1" vertex="1">
          <mxGeometry x="365" y="-467" width="134" height="42" as="geometry"/>
        </mxCell>
        <mxCell id="Lx_rTLUNLYmFt4STVL45-24" value="PullMessageProcessor" style="rounded=0;whiteSpace=wrap;html=1;" parent="1" vertex="1">
          <mxGeometry x="365" y="-417" width="134" height="42" as="geometry"/>
        </mxCell>
        <mxCell id="Lx_rTLUNLYmFt4STVL45-25" value="AdminProcessor" style="rounded=0;whiteSpace=wrap;html=1;" parent="1" vertex="1">
          <mxGeometry x="365" y="-521" width="135" height="42" as="geometry"/>
        </mxCell>
        <mxCell id="Lx_rTLUNLYmFt4STVL45-26" value="header decode" style="text;html=1;resizable=0;points=[];autosize=1;align=left;verticalAlign=top;spacingTop=-4;" parent="1" vertex="1">
          <mxGeometry x="51" y="-575" width="90" height="14" as="geometry"/>
        </mxCell>
        <mxCell id="Lx_rTLUNLYmFt4STVL45-27" value="body decode &amp;amp; process biz" style="text;html=1;resizable=0;points=[];autosize=1;align=left;verticalAlign=top;spacingTop=-4;" parent="1" vertex="1">
          <mxGeometry x="361" y="-543" width="154" height="14" as="geometry"/>
        </mxCell>
        <mxCell id="Lx_rTLUNLYmFt4STVL45-28" style="edgeStyle=none;rounded=0;orthogonalLoop=1;jettySize=auto;html=1;exitX=0.5;exitY=1;exitDx=0;exitDy=0;entryX=0.5;entryY=0;entryDx=0;entryDy=0;" parent="1" source="Lx_rTLUNLYmFt4STVL45-29" target="Lx_rTLUNLYmFt4STVL45-2" edge="1">
          <mxGeometry relative="1" as="geometry"/>
        </mxCell>
        <mxCell id="Lx_rTLUNLYmFt4STVL45-29" value="accept" style="ellipse;whiteSpace=wrap;html=1;" parent="1" vertex="1">
          <mxGeometry x="-91" y="-704" width="66" height="28" as="geometry"/>
        </mxCell>
        <mxCell id="Lx_rTLUNLYmFt4STVL45-30" style="edgeStyle=none;rounded=0;orthogonalLoop=1;jettySize=auto;html=1;exitX=0.5;exitY=1;exitDx=0;exitDy=0;entryX=0.5;entryY=0;entryDx=0;entryDy=0;" parent="1" source="Lx_rTLUNLYmFt4STVL45-31" target="Lx_rTLUNLYmFt4STVL45-4" edge="1">
          <mxGeometry relative="1" as="geometry"/>
        </mxCell>
        <mxCell id="Lx_rTLUNLYmFt4STVL45-31" value="read" style="ellipse;whiteSpace=wrap;html=1;" parent="1" vertex="1">
          <mxGeometry x="117.5" y="-708" width="66" height="28" as="geometry"/>
        </mxCell>
        <mxCell id="Lx_rTLUNLYmFt4STVL45-32" style="edgeStyle=none;rounded=0;orthogonalLoop=1;jettySize=auto;html=1;exitX=0.5;exitY=1;exitDx=0;exitDy=0;" parent="1" source="Lx_rTLUNLYmFt4STVL45-33" target="Lx_rTLUNLYmFt4STVL45-4" edge="1">
          <mxGeometry relative="1" as="geometry"/>
        </mxCell>
        <mxCell id="Lx_rTLUNLYmFt4STVL45-33" value="write" style="ellipse;whiteSpace=wrap;html=1;" parent="1" vertex="1">
          <mxGeometry x="214" y="-708" width="66" height="28" as="geometry"/>
        </mxCell>
        <mxCell id="Hp6exmD_PpvN_KynY06r-1" value="PullMessageService" style="swimlane;fontStyle=1;align=center;verticalAlign=top;childLayout=stackLayout;horizontal=1;startSize=26;horizontalStack=0;resizeParent=1;resizeParentMax=0;resizeLast=0;collapsible=1;marginBottom=0;" parent="1" vertex="1">
          <mxGeometry x="1694" y="-952" width="409" height="132" as="geometry"/>
        </mxCell>
        <mxCell id="Hp6exmD_PpvN_KynY06r-2" value="pullRequestQueue：LinkedBlockingQueue&lt;PullRequest&gt;&#xa;mQClientFactory" style="text;strokeColor=none;fillColor=none;align=left;verticalAlign=top;spacingLeft=4;spacingRight=4;overflow=hidden;rotatable=0;points=[[0,0.5],[1,0.5]];portConstraint=eastwest;" parent="Hp6exmD_PpvN_KynY06r-1" vertex="1">
          <mxGeometry y="26" width="409" height="48" as="geometry"/>
        </mxCell>
        <mxCell id="Hp6exmD_PpvN_KynY06r-3" value="" style="line;strokeWidth=1;fillColor=none;align=left;verticalAlign=middle;spacingTop=-1;spacingLeft=3;spacingRight=3;rotatable=0;labelPosition=right;points=[];portConstraint=eastwest;" parent="Hp6exmD_PpvN_KynY06r-1" vertex="1">
          <mxGeometry y="74" width="409" height="8" as="geometry"/>
        </mxCell>
        <mxCell id="Hp6exmD_PpvN_KynY06r-4" value="start()&#xa;run()不停执行pullRequest&#xa;void executePullRequestImmediately(final PullRequest pullRequest)" style="text;strokeColor=none;fillColor=none;align=left;verticalAlign=top;spacingLeft=4;spacingRight=4;overflow=hidden;rotatable=0;points=[[0,0.5],[1,0.5]];portConstraint=eastwest;" parent="Hp6exmD_PpvN_KynY06r-1" vertex="1">
          <mxGeometry y="82" width="409" height="50" as="geometry"/>
        </mxCell>
        <mxCell id="Hp6exmD_PpvN_KynY06r-5" value="MQClientInstance" style="swimlane;fontStyle=1;align=center;verticalAlign=top;childLayout=stackLayout;horizontal=1;startSize=26;horizontalStack=0;resizeParent=1;resizeParentMax=0;resizeLast=0;collapsible=1;marginBottom=0;" parent="1" vertex="1">
          <mxGeometry x="1171" y="-986" width="331" height="123" as="geometry"/>
        </mxCell>
        <mxCell id="Hp6exmD_PpvN_KynY06r-6" value="pullMessageService&#xa;consumerTable:ConcurrentMap&lt;String, MQConsumerInner&gt;&#xa;pullMessageService" style="text;strokeColor=none;fillColor=none;align=left;verticalAlign=top;spacingLeft=4;spacingRight=4;overflow=hidden;rotatable=0;points=[[0,0.5],[1,0.5]];portConstraint=eastwest;" parent="Hp6exmD_PpvN_KynY06r-5" vertex="1">
          <mxGeometry y="26" width="331" height="63" as="geometry"/>
        </mxCell>
        <mxCell id="Hp6exmD_PpvN_KynY06r-7" value="" style="line;strokeWidth=1;fillColor=none;align=left;verticalAlign=middle;spacingTop=-1;spacingLeft=3;spacingRight=3;rotatable=0;labelPosition=right;points=[];portConstraint=eastwest;" parent="Hp6exmD_PpvN_KynY06r-5" vertex="1">
          <mxGeometry y="89" width="331" height="8" as="geometry"/>
        </mxCell>
        <mxCell id="Hp6exmD_PpvN_KynY06r-8" value="+ method(type): type" style="text;strokeColor=none;fillColor=none;align=left;verticalAlign=top;spacingLeft=4;spacingRight=4;overflow=hidden;rotatable=0;points=[[0,0.5],[1,0.5]];portConstraint=eastwest;" parent="Hp6exmD_PpvN_KynY06r-5" vertex="1">
          <mxGeometry y="97" width="331" height="26" as="geometry"/>
        </mxCell>
        <mxCell id="Hp6exmD_PpvN_KynY06r-9" value="MQConsumerInner" style="swimlane;fontStyle=1;align=center;verticalAlign=top;childLayout=stackLayout;horizontal=1;startSize=26;horizontalStack=0;resizeParent=1;resizeParentMax=0;resizeLast=0;collapsible=1;marginBottom=0;" parent="1" vertex="1">
          <mxGeometry x="2297" y="-1100" width="160" height="86" as="geometry"/>
        </mxCell>
        <mxCell id="Hp6exmD_PpvN_KynY06r-10" value="+ field: type" style="text;strokeColor=none;fillColor=none;align=left;verticalAlign=top;spacingLeft=4;spacingRight=4;overflow=hidden;rotatable=0;points=[[0,0.5],[1,0.5]];portConstraint=eastwest;" parent="Hp6exmD_PpvN_KynY06r-9" vertex="1">
          <mxGeometry y="26" width="160" height="26" as="geometry"/>
        </mxCell>
        <mxCell id="Hp6exmD_PpvN_KynY06r-11" value="" style="line;strokeWidth=1;fillColor=none;align=left;verticalAlign=middle;spacingTop=-1;spacingLeft=3;spacingRight=3;rotatable=0;labelPosition=right;points=[];portConstraint=eastwest;" parent="Hp6exmD_PpvN_KynY06r-9" vertex="1">
          <mxGeometry y="52" width="160" height="8" as="geometry"/>
        </mxCell>
        <mxCell id="Hp6exmD_PpvN_KynY06r-12" value="void doRebalance()" style="text;strokeColor=none;fillColor=none;align=left;verticalAlign=top;spacingLeft=4;spacingRight=4;overflow=hidden;rotatable=0;points=[[0,0.5],[1,0.5]];portConstraint=eastwest;" parent="Hp6exmD_PpvN_KynY06r-9" vertex="1">
          <mxGeometry y="60" width="160" height="26" as="geometry"/>
        </mxCell>
        <mxCell id="Hp6exmD_PpvN_KynY06r-13" value="DefaultMQPushConsumerImpl" style="swimlane;fontStyle=1;align=center;verticalAlign=top;childLayout=stackLayout;horizontal=1;startSize=26;horizontalStack=0;resizeParent=1;resizeParentMax=0;resizeLast=0;collapsible=1;marginBottom=0;" parent="1" vertex="1">
          <mxGeometry x="2264" y="-940.5" width="235" height="162" as="geometry"/>
        </mxCell>
        <mxCell id="Hp6exmD_PpvN_KynY06r-14" value="consumeMessageService&#xa;mQClientFactory&#xa;rebalanceImpl&#xa;consumeOrderly" style="text;strokeColor=none;fillColor=none;align=left;verticalAlign=top;spacingLeft=4;spacingRight=4;overflow=hidden;rotatable=0;points=[[0,0.5],[1,0.5]];portConstraint=eastwest;" parent="Hp6exmD_PpvN_KynY06r-13" vertex="1">
          <mxGeometry y="26" width="235" height="82" as="geometry"/>
        </mxCell>
        <mxCell id="Hp6exmD_PpvN_KynY06r-15" value="" style="line;strokeWidth=1;fillColor=none;align=left;verticalAlign=middle;spacingTop=-1;spacingLeft=3;spacingRight=3;rotatable=0;labelPosition=right;points=[];portConstraint=eastwest;" parent="Hp6exmD_PpvN_KynY06r-13" vertex="1">
          <mxGeometry y="108" width="235" height="8" as="geometry"/>
        </mxCell>
        <mxCell id="Hp6exmD_PpvN_KynY06r-16" value="start() //消费者启动入口&#xa;public void executePullRequestImmediately(final PullRequest pullRequest)" style="text;strokeColor=none;fillColor=none;align=left;verticalAlign=top;spacingLeft=4;spacingRight=4;overflow=hidden;rotatable=0;points=[[0,0.5],[1,0.5]];portConstraint=eastwest;" parent="Hp6exmD_PpvN_KynY06r-13" vertex="1">
          <mxGeometry y="116" width="235" height="46" as="geometry"/>
        </mxCell>
        <mxCell id="Hp6exmD_PpvN_KynY06r-17" value="ConsumeMessageService" style="swimlane;fontStyle=1;align=center;verticalAlign=top;childLayout=stackLayout;horizontal=1;startSize=26;horizontalStack=0;resizeParent=1;resizeParentMax=0;resizeLast=0;collapsible=1;marginBottom=0;" parent="1" vertex="1">
          <mxGeometry x="2717" y="-1072" width="451" height="86" as="geometry"/>
        </mxCell>
        <mxCell id="Hp6exmD_PpvN_KynY06r-18" value="+ field: type" style="text;strokeColor=none;fillColor=none;align=left;verticalAlign=top;spacingLeft=4;spacingRight=4;overflow=hidden;rotatable=0;points=[[0,0.5],[1,0.5]];portConstraint=eastwest;" parent="Hp6exmD_PpvN_KynY06r-17" vertex="1">
          <mxGeometry y="26" width="451" height="26" as="geometry"/>
        </mxCell>
        <mxCell id="Hp6exmD_PpvN_KynY06r-19" value="" style="line;strokeWidth=1;fillColor=none;align=left;verticalAlign=middle;spacingTop=-1;spacingLeft=3;spacingRight=3;rotatable=0;labelPosition=right;points=[];portConstraint=eastwest;" parent="Hp6exmD_PpvN_KynY06r-17" vertex="1">
          <mxGeometry y="52" width="451" height="8" as="geometry"/>
        </mxCell>
        <mxCell id="Hp6exmD_PpvN_KynY06r-20" value="void submitConsumeRequest(msgs，processQueue，messageQueue" style="text;strokeColor=none;fillColor=none;align=left;verticalAlign=top;spacingLeft=4;spacingRight=4;overflow=hidden;rotatable=0;points=[[0,0.5],[1,0.5]];portConstraint=eastwest;" parent="Hp6exmD_PpvN_KynY06r-17" vertex="1">
          <mxGeometry y="60" width="451" height="26" as="geometry"/>
        </mxCell>
        <mxCell id="Hp6exmD_PpvN_KynY06r-21" value="" style="endArrow=open;html=1;endSize=12;startArrow=diamondThin;startSize=14;startFill=0;edgeStyle=orthogonalEdgeStyle;align=left;verticalAlign=bottom;entryX=-0.004;entryY=0.808;entryDx=0;entryDy=0;entryPerimeter=0;" parent="1" target="Hp6exmD_PpvN_KynY06r-18" edge="1">
          <mxGeometry x="-1" y="3" relative="1" as="geometry">
            <mxPoint x="2499" y="-895.5" as="sourcePoint"/>
            <mxPoint x="2659" y="-895.5" as="targetPoint"/>
            <Array as="points">
              <mxPoint x="2594" y="-895"/>
              <mxPoint x="2594" y="-1025"/>
            </Array>
          </mxGeometry>
        </mxCell>
        <mxCell id="Hp6exmD_PpvN_KynY06r-22" value="ConsumeMessageConcurrentlyService" style="swimlane;fontStyle=1;align=center;verticalAlign=top;childLayout=stackLayout;horizontal=1;startSize=26;horizontalStack=0;resizeParent=1;resizeParentMax=0;resizeLast=0;collapsible=1;marginBottom=0;" parent="1" vertex="1">
          <mxGeometry x="2736" y="-897" width="299" height="101" as="geometry"/>
        </mxCell>
        <mxCell id="Hp6exmD_PpvN_KynY06r-23" value="messageListener&#xa;consumeExecutor" style="text;strokeColor=none;fillColor=none;align=left;verticalAlign=top;spacingLeft=4;spacingRight=4;overflow=hidden;rotatable=0;points=[[0,0.5],[1,0.5]];portConstraint=eastwest;" parent="Hp6exmD_PpvN_KynY06r-22" vertex="1">
          <mxGeometry y="26" width="299" height="41" as="geometry"/>
        </mxCell>
        <mxCell id="Hp6exmD_PpvN_KynY06r-24" value="" style="line;strokeWidth=1;fillColor=none;align=left;verticalAlign=middle;spacingTop=-1;spacingLeft=3;spacingRight=3;rotatable=0;labelPosition=right;points=[];portConstraint=eastwest;" parent="Hp6exmD_PpvN_KynY06r-22" vertex="1">
          <mxGeometry y="67" width="299" height="8" as="geometry"/>
        </mxCell>
        <mxCell id="Hp6exmD_PpvN_KynY06r-25" value="+ method(type): type" style="text;strokeColor=none;fillColor=none;align=left;verticalAlign=top;spacingLeft=4;spacingRight=4;overflow=hidden;rotatable=0;points=[[0,0.5],[1,0.5]];portConstraint=eastwest;" parent="Hp6exmD_PpvN_KynY06r-22" vertex="1">
          <mxGeometry y="75" width="299" height="26" as="geometry"/>
        </mxCell>
        <mxCell id="Hp6exmD_PpvN_KynY06r-26" value="" style="endArrow=open;html=1;endSize=12;startArrow=diamondThin;startSize=14;startFill=1;edgeStyle=orthogonalEdgeStyle;align=left;verticalAlign=bottom;" parent="1" edge="1">
          <mxGeometry x="-1" y="3" relative="1" as="geometry">
            <mxPoint x="2104" y="-886.5" as="sourcePoint"/>
            <mxPoint x="2264" y="-886.5" as="targetPoint"/>
          </mxGeometry>
        </mxCell>
        <mxCell id="n7Yn_XqPl6xn_lPT0ma8-1" value="t0 t1 t2 t3 p1 p2 p3&amp;nbsp;&amp;nbsp;" style="text;html=1;resizable=0;points=[];autosize=1;align=left;verticalAlign=top;spacingTop=-4;" vertex="1" parent="1">
          <mxGeometry x="-123" y="-1229" width="117" height="14" as="geometry"/>
        </mxCell>
        <mxCell id="n7Yn_XqPl6xn_lPT0ma8-2" value="c1: t1 t2 t3&lt;br&gt;c2:p1 p2 p3" style="text;html=1;resizable=0;points=[];autosize=1;align=left;verticalAlign=top;spacingTop=-4;" vertex="1" parent="1">
          <mxGeometry x="-114" y="-1202" width="73" height="28" as="geometry"/>
        </mxCell>
        <mxCell id="n7Yn_XqPl6xn_lPT0ma8-4" value="c1:t0 t2 p1 p3" style="text;html=1;resizable=0;points=[];autosize=1;align=left;verticalAlign=top;spacingTop=-4;" vertex="1" parent="1">
          <mxGeometry x="-5" y="-1202" width="83" height="14" as="geometry"/>
        </mxCell>
        <mxCell id="n7Yn_XqPl6xn_lPT0ma8-5" value="c2: t1 t3 p2" style="text;html=1;resizable=0;points=[];autosize=1;align=left;verticalAlign=top;spacingTop=-4;" vertex="1" parent="1">
          <mxGeometry x="-9.5" y="-1182" width="69" height="14" as="geometry"/>
        </mxCell>
        <mxCell id="n7Yn_XqPl6xn_lPT0ma8-6" value="avg策略" style="text;html=1;resizable=0;points=[];autosize=1;align=left;verticalAlign=top;spacingTop=-4;" vertex="1" parent="1">
          <mxGeometry x="-109.5" y="-1160" width="53" height="14" as="geometry"/>
        </mxCell>
        <mxCell id="n7Yn_XqPl6xn_lPT0ma8-7" value="circle策略" style="text;html=1;resizable=0;points=[];autosize=1;align=left;verticalAlign=top;spacingTop=-4;" vertex="1" parent="1">
          <mxGeometry x="-1" y="-1160" width="62" height="14" as="geometry"/>
        </mxCell>
        <mxCell id="n7Yn_XqPl6xn_lPT0ma8-8" value="分区分配策略" style="text;html=1;resizable=0;points=[];autosize=1;align=left;verticalAlign=top;spacingTop=-4;" vertex="1" parent="1">
          <mxGeometry x="-88" y="-1258" width="82" height="14" as="geometry"/>
        </mxCell>
      </root>
    </mxGraphModel>
  </diagram>
</mxfile>
